<mxfile host="app.diagrams.net" modified="2023-09-07T06:08:48.789Z" agent="Mozilla/5.0 (X11; Ubuntu; Linux x86_64; rv:109.0) Gecko/20100101 Firefox/116.0" version="21.7.2" etag="mlJD2f8sLfXmUQNLaIvZ" type="github">
  <diagram name="ページ1" id="6FIuv7qMTFSSpuF7lRBk">
    <mxGraphModel>
      <root>
        <mxCell id="0" />
        <mxCell id="1" parent="0" />
      </root>
    </mxGraphModel>
  </diagram>
</mxfile>
